<svg width="248" height="60" viewBox="0 0 248 60" fill="none" xmlns="http://www.w3.org/2000/svg">
<g clip-path="url(#clip0_1001_2)">
<path d="M12.9234 4.88769L0 49.3333H7.43077L16.6769 19.3231L25.9231 49.3333H33.3538L20.4308 4.88769H12.9231Z" fill="#00202E"/>
<path d="M49.6923 4.88769V49.3333H56.5538V28.7897L64.2462 49.3333H71.5385L63.8462 28.7897V49.3333H70.7077V4.88769H63.8462L56.1538 25.1385V4.88769H49.6923Z" fill="#00202E"/>
<path d="M78.6154 4.88769V49.3333H85.4769V4.88769H78.6154Z" fill="#00202E"/>
<path d="M112.954 28.1692C112.954 39.5282 104.708 49.3333 93.7231 49.3333C82.7385 49.3333 74.4923 39.5282 74.4923 28.1692C74.4923 16.8103 82.7385 7.00513 93.7231 7.00513C104.708 7.00513 112.954 16.8103 112.954 28.1692ZM81.3538 28.1692C81.3538 35.6 86.8462 42.4615 93.7231 42.4615C100.6 42.4615 106.092 35.6 106.092 28.1692C106.092 20.7385 100.6 13.8769 93.7231 13.8769C86.8462 13.8769 81.3538 20.7385 81.3538 28.1692Z" fill="#003750"/>
<path d="M149.261 4.88769L136.338 49.3333H143.769L153.015 19.3231L162.261 49.3333H169.692L156.769 4.88769H149.261Z" fill="#003750"/>
<path d="M192.461 49.3333C203.446 49.3333 211.692 39.5282 211.692 28.1692C211.692 16.8103 203.446 7.00513 192.461 7.00513C181.477 7.00513 173.231 16.8103 173.231 28.1692C173.231 39.5282 181.477 49.3333 192.461 49.3333ZM192.461 42.4615C185.585 42.4615 180.092 35.6 180.092 28.1692C180.092 20.7385 185.585 13.8769 192.461 13.8769C199.338 13.8769 204.831 20.7385 204.831 28.1692C204.831 35.6 199.338 42.4615 192.461 42.4615Z" fill="#003750"/>
<path d="M121.739 28.2769L129.57 4.88769H122.585L118.246 17.5897H118.062L116.615 4.88769H109.631V49.3333H116.492V17.0154L117.846 49.3333H124.831L132.062 17.0154V49.3333H138.923V4.88769H131.785L124.031 28.2769H121.739Z" fill="#003750"/>
<path d="M24.8923 54.3333H223.169V56.8333H24.8923V54.3333Z" fill="url(#paint0_linear_1001_2)"/>
<path d="M24.8923 54.3333H223.169V56.8333H24.8923V54.3333Z" fill="url(#paint1_linear_1001_2)"/>
<path d="M226.708 55.5846L248 44.8308V55.5846" fill="#005B8A"/>
</g>
<defs>
<linearGradient id="paint0_linear_1001_2" x1="223.169" y1="54.3333" x2="24.8923" y2="54.3333" gradientUnits="userSpaceOnUse">
<stop stop-color="#00202E"/>
<stop offset="0.48" stop-color="#005B8A"/>
<stop offset="1" stop-color="#00A9E0"/>
</linearGradient>
<linearGradient id="paint1_linear_1001_2" x1="223.169" y1="54.3333" x2="24.8923" y2="54.3333" gradientUnits="userSpaceOnUse">
<stop stop-color="#00202E"/>
<stop offset="0.48" stop-color="#005B8A"/>
<stop offset="1" stop-color="#00A9E0"/>
</linearGradient>
<clipPath id="clip0_1001_2">
<rect width="248" height="60" fill="white"/>
</clipPath>
</defs>
</svg>
