<svg width="677" height="181" viewBox="0 0 677 181" fill="none" xmlns="http://www.w3.org/2000/svg">
<path d="M0.858398 180.01L72.2314 0.908203H102.5L30.9314 180.01H0.858398Z" fill="#00202E"/>
<path d="M112.571 0.908203L130.644 65.434H131.859L149.931 0.908203H174.659L145.459 90.0494L175.459 180.01H150.316L132.244 114.684H131.029L112.956 180.01H88.2285L118.229 90.0494L89.0285 0.908203H112.571Z" fill="#00202E"/>
<path d="M198.818 111.469C192.518 117.769 184.604 122.112 175.076 124.499L189.986 180.01H158.72L146.434 133.529C145.219 135.544 144.201 137.362 143.381 138.981C139.781 146.299 135.076 152.204 129.268 156.696C123.559 161.089 116.894 164.299 109.268 166.314C94.2139 170.831 77.8464 170.224 64.2678 164.499C50.6892 158.774 39.9811 148.434 35.1587 135.129C32.193 126.96 31.7892 118.069 34.0285 109.81C36.2678 101.55 41.0903 94.2292 47.9809 88.6289C54.8715 83.0286 63.5367 79.3623 72.9809 78.01C82.4251 76.6578 92.1528 77.6839 100.316 80.9807C108.48 84.2774 115.529 89.6839 120.316 96.6578L138.181 33.5286C128.846 26.2111 117.746 21.3623 105.894 19.8286C94.0411 18.2948 82.0464 20.1774 71.0285 25.2948C59.9119 30.4605 50.1837 38.6289 42.9809 48.9807C35.7781 59.3325 31.4309 71.5552 30.4809 84.2292C29.5309 96.9032 32.0036 109.629 37.6036 120.658C43.2036 131.686 51.7285 140.686 62.1419 146.51C72.5552 152.335 84.4867 154.684 96.3811 153.229C108.276 151.774 119.52 146.555 128.434 138.381C132.889 134.249 136.636 129.404 139.434 124.081L120.713 58.7552L198.818 111.469Z" fill="#00A78E"/>
<path d="M294.615 125.684L266.329 0.908203H297.773L326.059 125.684H294.615ZM261.273 180.01L221.273 28.5286H255.415L281.115 180.01H249.773L253.915 152.273H203.915L194.615 180.01H163.17L212.473 0.908203H246.615L210.473 140.459H264.615L273.915 85.0494L242.059 14.7227L235.415 41.4589L231.273 60.8589L236.615 35.4589L242.059 14.7227L219.72 13.9082L217.915 22.1289L212.473 47.7227L241.615 152.273H218.473L222.815 180.01H261.273Z" fill="#00202E"/>
<path d="M346.044 180.01V0.908203H435.316V28.5286H377.316V75.7227H429.316V100.859H377.316V152.273H437.316V180.01H346.044Z" fill="#00202E"/>
<path d="M542.41 180.01V0.908203H573.681V180.01H542.41Z" fill="#00202E"/>
<path d="M469.17 180.01V0.908203H500.44V152.273H532.044L531.644 148.459L532.044 152.273V0.908203H520.44L492.044 94.2727H491.229L489.644 85.0494L491.229 94.2727H492.044L463.644 0.908203H457.17V180.01H469.17Z" fill="#00202E"/>
<path d="M592.515 0.908203L609.786 65.434H610.956L628.229 0.908203H651.9L623.829 90.0494L652.715 180.01H628.629L611.357 114.684H610.186L592.915 180.01H569.229L598.115 90.0494L569.629 0.908203H592.515Z" fill="#00202E"/>
<path d="M676.012 119.544C676.012 136.01 669.754 150.862 657.24 164.1C644.726 177.338 627.526 185.049 605.64 185.049C583.754 185.049 566.554 177.338 554.04 164.1C541.526 150.862 535.268 136.01 535.268 119.544C535.268 103.078 541.526 88.2286 554.04 74.9894C566.554 61.7502 583.754 55.1289 605.64 55.1289C627.526 55.1289 644.726 61.7502 657.24 74.9894C669.754 88.2286 676.012 103.078 676.012 119.544ZM644.726 119.544C644.726 108.658 641.526 99.3865 635.112 91.7286C628.697 84.0707 618.897 80.2418 605.712 80.2418C592.526 80.2418 582.726 84.0707 576.312 91.7286C569.897 99.3865 566.697 108.658 566.697 119.544C566.697 130.431 569.897 139.699 576.312 147.357C582.726 155.015 592.526 158.844 605.712 158.844C618.897 158.844 628.697 155.015 635.112 147.357C641.526 139.699 644.726 130.431 644.726 119.544Z" fill="#00202E"/>
</svg>
